# xmcd CD database file generated by OrangeCD 5.2
#
# Track frame offsets:
#	202
#	15025
#	29752
#	48272
#	63507
#	76215
#	89170
#	104825
#	121705
#
# Disc length: 1865 seconds
#
# Revision: 1
# Processed by: cddbd v1.5.1PL0 Copyright (c) Steve Scherf et al.
# Submitted via: OrangeCD 5.2
#
DISCID=6e074709
DTITLE=The Buzz Hummer Band - Kickin' With Country
DYEAR=1994
DGENRE=Country
TTITLE0=Boot Scootin' Boogie
TTITLE1=Lucky Feelin'
TTITLE2=Elvira
TTITLE3=Down At The Twist And Shout
TTITLE4=Jukebox Rock
TTITLE5=I'm In A Hurry
TTITLE6=Achy Breaky Heart
TTITLE7=Forever On My Mind
TTITLE8=Elvira
EXTD=
EXTT0=
EXTT1=
EXTT2=
EXTT3=
EXTT4=
EXTT5=
EXTT6=
EXTT7=
EXTT8=
PLAYORDER=
